PathFileType	4	(X/Y/Z)	../Python\walking\Walking19\task.trc
DataRate	CameraRate	NumFrames	NumMarkers	Units	OrigDataRate	OrigDataStartFrame	OrigNumFrames
200.000000	200.000000	4	30	mm	200.000000	142	571
Frame#	Time	RBAK			CLAV			STRN			RASI			LASI			PE01			RTH1			RTH2			RTH3			RTB2			RTB3			RD5M			RTOE			LTH3			LTB2			LTB3			LHEE			LTOE			LD5M			RHEE			LTH1			LTH2			C7			RTB1			LPSI			PE03			PE02			RPSI			T10			LTB1			
		X1	Y1	Z1	X2	Y2	Z2	X3	Y3	Z3	X4	Y4	Z4	X5	Y5	Z5	X6	Y6	Z6	X7	Y7	Z7	X8	Y8	Z8	X9	Y9	Z9	X10	Y10	Z10	X11	Y11	Z11	X12	Y12	Z12	X13	Y13	Z13	X14	Y14	Z14	X15	Y15	Z15	X16	Y16	Z16	X17	Y17	Z17	X18	Y18	Z18	X19	Y19	Z19	X20	Y20	Z20	X21	Y21	Z21	X22	Y22	Z22	X23	Y23	Z23	X24	Y24	Z24	X25	Y25	Z25	X26	Y26	Z26	X27	Y27	Z27	X28	Y28	Z28	X29	Y29	Z29	X30	Y30	Z30	

143	0.71	-751.0596923828127	1221.391723632813	274.0858459472657	-597.295104980469	1216.326782226563	139.7593994140626	-536.500427246094	1030.831420898438	150.7980957031251	-571.6871337890627	835.8649902343755	301.2156677246095	-551.0132446289065	842.916381835938	71.1502380371094	-751.498718261719	917.1286010742192	177.5471649169922	-728.3623046875002	566.9901123046877	317.9734191894532	-738.0117797851565	490.1114501953127	297.9866027832032	-693.345153808594	532.2114257812502	304.7659606933595	-894.0800170898442	269.222625732422	287.2158813476564	-885.8518676757817	221.7357025146486	271.021697998047	-922.0478515625005	17.86908912658692	262.4218139648439	-884.9751586914067	27.16597557067873	208.3667297363282	-477.8831787109377	586.1994628906252	30.86562156677248	-420.2576599121096	199.5566253662111	61.0530700683594	-390.2422790527346	238.7628631591798	63.96169662475589	-403.6284790039065	26.59458160400392	110.8401107788087	-219.2647094726564	57.35750579833987	121.4873809814454	-249.8927154541017	34.72949600219728	74.83174133300784	-1055.778686523438	95.30226135253909	207.4917755126954	-527.9255371093752	587.5911254882815	28.76211357116701	-528.5047607421877	529.620544433594	46.57685852050783	-718.8332519531252	1312.7470703125	153.8852081298829	-835.247680664063	282.841766357422	277.9353637695314	-757.7084960937502	876.852416992188	139.1271057128907	-767.8060302734377	859.6972656250005	146.4237365722657	-776.064331054688	858.1538696289067	196.2734832763673	-762.7548828125002	884.244018554688	223.8028411865236	-744.008239746094	1015.033264160157	183.0420074462891	-438.132751464844	276.2776184082032	51.66524124145511	
144	0.715	-743.7059326171877	1221.621826171875	273.6518859863282	-590.0435180664065	1216.60400390625	139.1232452392579	-528.917663574219	1031.282958984375	150.1354522705079	-563.9688110351565	835.5720825195317	300.5921630859376	-543.5479736328127	843.6599731445317	70.61965942382815	-743.9278564453127	917.4365234375005	177.8462524414063	-720.8673095703127	566.850280761719	317.4703979492189	-730.5950317382815	489.9605407714846	297.6483154296876	-685.8818359375002	532.0277099609377	304.385711669922	-888.9442749023442	270.9192810058595	287.0311889648439	-881.322631835938	223.2115936279298	271.0760498046876	-921.5464477539067	18.33443069458009	262.3856201171876	-884.8338012695317	27.0468101501465	208.455535888672	-468.5041503906252	588.3869628906252	32.28585433959962	-415.3552246093752	200.3336029052736	60.88319015502933	-384.8609924316409	238.8176422119142	64.28816223144534	-402.9667968750002	27.27711677551271	110.6073455810547	-217.7371520996095	53.39385223388675	122.416244506836	-249.0001831054689	31.62838935852052	75.34125518798831	-1052.819091796875	99.79899597167974	207.3543243408204	-518.2015380859377	589.4252929687502	28.58427238464357	-518.889343261719	531.245300292969	45.65925598144533	-711.699645996094	1312.850219726563	153.3334045410157	-829.750122070313	283.572967529297	277.8898010253907	-750.1570434570315	877.3715820312505	139.0734558105469	-760.159851074219	860.2158813476567	146.2680206298829	-768.3030395507817	858.2422485351567	196.1275177001954	-754.947937011719	884.3150024414067	223.9163208007814	-736.4387817382815	1015.194152832032	183.1424560546876	-431.7164001464846	277.3915100097657	51.48119735717776	
145	0.72	-736.3553466796877	1221.937377929688	273.2218322753907	-582.786315917969	1216.985229492188	138.5050659179688	-521.3188476562502	1031.844360351563	149.4738464355469	-556.2449951171877	835.357299804688	299.9288024902345	-536.0923461914065	844.4946899414067	70.07324218750003	-736.3757934570315	917.8161621093755	178.1656188964844	-713.1638793945315	566.6994628906252	316.954559326172	-722.8794555664065	489.7903747558596	297.3200683593751	-678.1701660156252	531.871520996094	304.0123901367189	-883.502319335938	272.6640014648439	286.8062133789064	-876.4846191406255	224.7346954345704	271.1129455566407	-920.9837036132817	18.85143852233887	262.3325805664064	-884.6974487304692	26.91109466552736	208.5420532226564	-459.1790161132815	590.719177246094	33.68380737304689	-410.5338134765627	201.1634979248048	60.54870986938479	-379.6220703125001	238.9196929931642	64.55730438232425	-402.3861999511721	27.98643493652345	110.3540649414063	-216.3751831054689	49.73686981201175	123.1635208129883	-248.2716217041017	28.78095054626466	75.66314697265628	-1049.453002929688	104.4678192138672	207.0576171875001	-508.5325622558596	591.3359985351565	28.37522506713869	-509.2983093261721	532.9476318359377	44.71559906005861	-704.5639648437502	1313.04150390625	152.7911987304688	-823.941040039063	284.3255920410157	277.8364562988282	-742.6082153320315	877.9807128906255	139.0228576660157	-752.5247802734377	860.803588867188	146.1374664306641	-760.527770996094	858.3967285156255	196.0114593505861	-747.1322021484377	884.4475708007817	224.0540466308595	-728.861755371094	1015.443054199219	183.2355499267579	-425.3659362792971	278.5320434570314	51.12594223022464	
146	0.725	-729.0130004882815	1222.335327148438	272.7953491210939	-575.5259399414065	1217.467041015625	137.9078674316407	-513.708190917969	1032.511352539063	148.8183746337891	-548.5250244140627	835.221801757813	299.2297668457032	-528.6475830078127	845.414428710938	69.51511383056643	-728.8466796875002	918.262573242188	178.496810913086	-705.2468261718752	566.527038574219	316.4343872070314	-714.8464965820315	489.5867004394534	297.0137939453126	-670.199645996094	531.7351684570315	303.6552734375001	-877.738891601563	274.4483947753907	286.543182373047	-871.3195800781255	226.2977600097657	271.1370849609376	-920.3576660156255	19.424955368042	262.2556762695314	-884.561401367188	26.7654495239258	208.6241607666017	-449.9426269531252	593.1392822265627	35.01848220825197	-405.8136901855471	202.0065307617189	60.06615829467776	-374.5437927246095	239.0478820800782	64.77404785156253	-401.8613586425784	28.70023345947267	110.0910034179688	-215.1519775390626	46.41369247436525	123.7405090332032	-247.6718597412111	26.20797348022462	75.80850219726565	-1045.63818359375	109.299659729004	206.5908508300782	-498.9647216796877	593.2877197265627	28.13347625732423	-499.7828063964846	534.6956787109377	43.75666809082033	-697.428405761719	1313.319091796875	152.2596435546876	-817.8085937500005	285.0954895019532	277.7849121093751	-735.0657348632815	878.6740112304692	138.9697723388672	-744.9055175781252	861.454711914063	146.0264892578126	-752.7452392578127	858.6145629882817	195.9197082519532	-739.3154907226565	884.6389770507817	224.2079925537111	-721.282165527344	1015.77734375	183.3153686523438	-419.1182861328127	279.6545715332032	50.61109542846683	
